<?xml version="1.0" standalone="no"?>
<!DOCTYPE svg PUBLIC "-//W3C//DTD SVG 20010904//EN"
 "http://www.w3.org/TR/2001/REC-SVG-20010904/DTD/svg10.dtd">
<svg version="1.0" xmlns="http://www.w3.org/2000/svg"
 width="1090.000000pt" height="437.000000pt" viewBox="0 0 1090.000000 437.000000"
 preserveAspectRatio="xMidYMid meet">

<g transform="translate(0.000000,437.000000) scale(0.100000,-0.100000)"
fill="#764ABC" stroke="none">
<path d="M2025 3975 c-285 -54 -562 -255 -727 -527 -162 -266 -251 -646 -232
-993 15 -292 86 -557 230 -854 l75 -155 -16 -38 c-33 -84 -10 -197 57 -273
166 -188 466 -89 485 160 12 155 -113 295 -264 295 -51 0 -54 1 -80 43 -36 56
-104 204 -137 297 -127 351 -139 805 -31 1128 63 187 152 340 269 460 137 142
362 232 577 232 110 0 160 -11 267 -61 71 -33 97 -52 175 -132 103 -104 167
-203 229 -355 43 -106 88 -268 88 -320 0 -37 0 -37 133 -77 48 -14 95 -29 104
-32 14 -6 15 2 9 68 -4 41 -16 119 -27 174 -103 507 -431 883 -837 961 -90 17
-253 17 -347 -1z"/>
<path d="M7880 2636 l0 -304 -58 58 c-70 69 -125 90 -243 90 -105 0 -190 -27
-255 -82 -133 -113 -184 -241 -184 -463 0 -181 35 -288 126 -385 68 -73 138
-103 249 -108 149 -7 258 38 328 135 l32 45 3 -81 3 -81 114 0 115 0 0 740 0
740 -115 0 -115 0 0 -304z m-109 -371 c24 -17 57 -53 74 -79 29 -48 30 -53 33
-191 4 -161 -4 -202 -51 -271 -69 -101 -207 -137 -315 -82 -57 29 -116 110
-132 181 -15 69 -12 214 5 271 30 100 86 167 160 194 17 6 65 10 107 9 67 -2
82 -6 119 -32z"/>
<path d="M4978 2854 c-5 -4 -8 -319 -8 -701 l0 -693 115 0 115 0 0 286 0 287
83 -5 c98 -5 148 -28 201 -89 19 -23 89 -133 155 -243 66 -111 126 -209 133
-219 12 -16 28 -17 145 -15 l132 3 -142 222 c-163 256 -211 320 -277 372 l-47
37 72 33 c127 57 201 149 225 280 14 76 0 182 -31 243 -45 87 -138 155 -258
186 -61 16 -600 30 -613 16z m563 -221 c77 -43 102 -93 97 -193 -4 -96 -37
-150 -117 -192 -51 -27 -60 -28 -187 -28 l-134 0 0 218 c0 120 3 222 8 226 4
5 68 6 143 4 129 -4 138 -6 190 -35z"/>
<path d="M1898 2837 c-67 -19 -123 -62 -160 -121 -41 -66 -51 -170 -23 -243
24 -63 84 -126 148 -154 63 -28 162 -30 220 -5 46 20 113 80 133 118 l15 28
114 0 c563 0 1170 -305 1443 -725 49 -76 122 -223 146 -295 40 -124 49 -288
21 -395 -49 -190 -190 -367 -365 -459 -129 -68 -194 -81 -390 -81 -161 1 -183
3 -275 29 -55 15 -115 34 -134 42 -52 22 -69 17 -130 -34 -31 -27 -77 -64
-103 -84 -56 -42 -56 -43 57 -86 163 -62 277 -88 438 -102 337 -28 690 95 911
318 85 85 134 157 174 254 51 122 65 217 59 397 -5 176 -26 268 -94 427 -103
239 -355 518 -638 709 -73 49 -264 145 -375 188 -208 81 -512 136 -755 137
l-110 0 -44 51 c-24 29 -63 60 -86 70 -57 25 -140 32 -197 16z"/>
<path d="M6426 2469 c-107 -26 -237 -132 -289 -235 -46 -91 -61 -160 -61 -284
1 -179 39 -291 132 -385 91 -93 183 -125 352 -125 123 0 217 18 289 54 l51 26
0 90 0 90 -53 -29 c-108 -62 -281 -79 -378 -38 -84 35 -147 122 -163 224 l-6
43 337 2 338 3 3 92 c7 215 -79 379 -236 451 -49 22 -73 26 -167 29 -60 1
-127 -2 -149 -8z m218 -171 c68 -34 121 -128 114 -200 l-3 -33 -219 -3 c-121
-1 -223 1 -227 5 -12 13 16 100 47 144 32 47 88 87 136 100 39 9 123 2 152
-13z"/>
<path d="M8380 2173 c1 -440 16 -538 96 -632 57 -66 121 -93 235 -99 72 -3
109 -1 143 11 61 21 127 68 157 111 13 20 27 36 32 36 4 0 7 -31 7 -70 l0 -70
115 0 115 0 0 500 0 500 -115 0 -115 0 0 -313 c0 -347 -5 -382 -61 -450 -101
-123 -295 -104 -355 36 -17 38 -19 78 -22 385 l-3 342 -115 0 -114 0 0 -287z"/>
<path d="M9466 2448 c5 -7 77 -122 161 -256 l153 -243 -161 -231 c-89 -128
-163 -238 -166 -245 -4 -11 19 -13 123 -11 l128 3 70 121 c39 67 88 152 109
189 21 37 40 65 42 63 1 -1 51 -87 110 -190 l107 -188 129 0 c102 0 129 3 123
13 -4 6 -75 113 -158 237 -83 124 -150 234 -150 245 0 11 71 127 157 257 86
131 157 240 157 243 0 3 -55 4 -122 3 l-122 -3 -106 -188 c-58 -104 -109 -189
-115 -189 -5 -1 -55 84 -111 188 l-101 189 -132 3 c-106 2 -131 0 -125 -10z"/>
<path d="M748 2171 c-157 -132 -270 -274 -354 -448 -75 -153 -105 -272 -111
-442 -10 -238 45 -441 168 -622 82 -121 268 -250 443 -308 160 -53 227 -64
401 -64 142 0 176 3 300 31 628 139 1073 463 1363 993 39 71 45 77 85 87 90
23 175 111 197 203 46 190 -108 367 -299 345 -75 -9 -133 -38 -180 -93 -81
-91 -92 -208 -30 -323 l32 -61 -17 -37 c-33 -70 -144 -227 -223 -314 -184
-205 -500 -416 -770 -514 -364 -132 -751 -102 -990 77 -173 129 -295 427 -263
642 33 230 152 440 351 620 l72 64 -30 119 c-16 65 -34 119 -40 121 -6 2 -53
-32 -105 -76z"/>
</g>
</svg>
